<svg width="160" height="58" viewBox="0 0 160 58" fill="none" xmlns="http://www.w3.org/2000/svg">
<g clip-path="url(#clip0_245_3052)">
<path d="M80.3553 30.2186L80.5372 27.2075C80.5372 27.2075 77.627 25.2068 73.4839 26.197C69.8461 27.167 69.5632 29.4305 69.6036 30.9663C69.6643 32.4618 71.0385 33.9573 72.8574 34.3817C74.6763 34.8061 76.8792 35.0486 77.5057 35.2305C78.1322 35.4123 79.2842 37.0291 77.3238 37.8778C75.606 38.3224 71.8873 37.5545 70.1493 36.5238C70.028 37.7162 69.9876 40.0402 69.9876 40.0402C69.9876 40.0402 75.9293 42.1622 78.5162 40.4646C81.2041 39.05 81.3658 37.9183 81.285 36.4026C81.3658 34.8263 81.3052 32.3406 75.8485 31.8353C71.9884 31.4109 72.7766 29.9963 72.7766 29.9963C72.7766 29.9963 74.07 27.2681 80.3553 30.2186Z" fill="white"/>
<path d="M100.545 40.6667H97.4527L97.6346 29.1273H95.3913V26.5204H97.6144L97.5942 23.105C97.5942 23.105 97.3112 19.7908 100.686 18.7602C103.96 18.6591 104.344 18.7602 104.344 18.7602V21.6702C104.344 21.6702 100.605 20.5789 100.585 23.2061C100.565 25.8535 100.545 26.5608 100.545 26.5608L105.355 26.6618L105.436 22.4179L108.184 22.3977V26.6012L113.964 26.581V22.4179L116.955 22.3977L116.874 26.581L121.139 26.6214V29.1879H116.693L116.773 35.8974C116.773 35.8974 116.612 38.4841 119.118 38.1204C120.573 37.7566 120.997 37.3928 120.997 37.3928L121.017 40.4848C121.017 40.4848 118.855 41.7176 116.147 40.6667C114.672 39.9796 113.924 38.9085 113.863 36.5845C113.803 34.2402 113.904 29.2284 113.904 29.2284L108.144 29.2082L108.124 35.9176C108.124 35.9176 108.892 40.3029 112.186 37.2918C112.206 38.5852 112.246 40.5252 112.246 40.5252C112.246 40.5252 110.791 41.5155 108.265 40.9294C105.739 40.3434 105.314 38.282 105.314 37.0897C105.314 35.8974 105.375 29.0667 105.375 29.0667L100.525 29.1475L100.545 40.6667Z" fill="white"/>
<path d="M145.411 27.0458V30.1984C145.411 30.1984 141.248 27.8744 138.681 29.7942C136.539 31.512 136.317 33.0075 136.741 35.0082C137.246 36.5036 139.065 38.9287 142.016 38.1203C144.966 37.312 145.573 36.8068 145.573 36.8068V40.1008C145.573 40.1008 140.5 42.5259 136.862 39.8381C133.669 37.5343 133.406 35.2911 133.79 32.4618C134.174 29.6325 135.912 27.551 138.742 26.5203C141.571 25.5099 145.411 27.0458 145.411 27.0458Z" fill="white"/>
<path d="M149.352 41.1113H146.603L146.704 19.326H149.352V28.5817C149.352 28.5817 152.484 25.2674 156.203 27.0054C159.356 28.4402 159.053 31.1886 159.053 31.1886V40.99L156.122 41.0911V31.8151C156.122 31.8151 155.819 28.0967 151.858 29.6932C149.998 30.5015 149.352 31.6332 149.352 31.6332V41.1113Z" fill="white"/>
<path d="M133.548 31.4514C133.548 31.4514 133.103 28.3392 130.476 26.9649C126.009 24.5399 122.21 28.0764 122.21 28.0764C119.603 30.9461 120.169 34.0179 120.31 35.6548C120.795 37.3928 121.644 39.2319 125.019 40.5454C128.879 42.142 132.8 39.8179 132.8 39.8179L132.86 36.6249C132.86 36.6249 130.658 38.1406 127.505 38.282C123.645 38.0193 123.018 34.5029 123.018 34.5029H133.548V31.4514ZM123.22 32.1789C123.22 32.1789 123.705 29.1879 126.676 29.0061C129.647 28.8242 130.496 30.6632 130.839 32.1789H123.22Z" fill="white"/>
<path d="M88.722 25.9141C84.5183 25.9141 81.1231 29.3092 81.1231 33.5127C81.1231 37.7162 84.5183 41.1113 88.722 41.1113C92.9257 41.1113 96.3209 37.7162 96.3209 33.5127C96.3209 29.3092 92.9257 25.9141 88.722 25.9141ZM88.722 37.5545C86.4989 37.5545 84.68 35.7357 84.68 33.5127C84.68 31.2897 86.4989 29.4709 88.722 29.4709C90.9451 29.4709 92.764 31.2897 92.764 33.5127C92.764 35.7357 90.9653 37.5545 88.722 37.5545Z" fill="white"/>
<path d="M26.3546 15.5065V20.9628H14.5923V25.9343H26.1929V31.3503H14.5923V36.3824H26.395V42.0611L14.6125 41.9803H14.5923C14.37 42.0005 8.99417 42.3238 8.30704 35.8771C8.30704 29.2081 8.36767 20.7001 8.36767 20.7001C8.36767 20.7001 8.40809 15.5065 14.1679 15.5065C19.9277 15.5065 26.3546 15.5065 26.3546 15.5065Z" fill="url(#paint0_linear_245_3052)"/>
<path d="M47.1506 23.3879L47.2921 20.397C47.2921 20.397 47.7165 15.4459 40.4611 15.4863C34.6205 15.4863 34.6205 15.4863 34.6205 15.4863C34.6205 15.4863 30.8008 15.6075 29.5882 19.7706C29.5882 23.7719 29.5882 29.2486 29.5882 29.2486C29.5882 29.2486 29.9722 31.229 31.973 31.229C33.9738 31.229 41.1483 31.229 41.1483 31.229V35.9984C41.1483 35.9984 41.0472 36.3015 40.6228 36.3015C40.2186 36.3015 35.7927 36.3015 35.7927 36.3015V33.6541H29.568V37.5747C29.568 37.5747 30.0935 41.9398 36.0554 41.9398C41.3302 41.9398 42.8661 41.7782 42.8661 41.7782C42.8661 41.7782 46.7262 41.2325 47.1304 36.9482C47.4538 33.25 47.1304 28.6221 47.1304 28.6221C47.1304 28.6221 47.5953 25.8736 44.7861 25.8736C41.9769 25.8736 35.4087 25.8736 35.4087 25.8736L35.3278 21.4277H41.1483V23.3475L47.1506 23.3879Z" fill="url(#paint1_linear_245_3052)"/>
<path d="M68.2498 19.7099C67.401 15.0012 61.8836 15.4862 61.8836 15.4862H50.4448V41.7984H56.6493L56.6897 36.6046C56.6897 36.6046 56.6897 36.6046 62.6314 36.6046C68.4721 35.7357 68.1083 32.3203 68.1083 32.3203C68.1083 32.3203 68.2498 24.6813 68.2498 19.7099ZM62.9346 30.9663H56.6493V20.9022H62.9346V30.9663Z" fill="url(#paint2_linear_245_3052)"/>
<path d="M41.0875 0.551809C37.0051 -0.256554 32.9429 0.511391 30.6996 1.09745C30.6996 1.13787 30.6996 1.13787 30.7198 1.1985C42.8458 -0.256554 52.3646 6.10929 57.3565 14.6779C62.9344 24.5197 60.6103 34.8061 57.1544 40.7071C54.7494 45.1329 47.9387 53.2165 35.9138 53.9441C28.5169 54.4897 17.7247 51.7009 11.4192 41.374C11.3384 41.4144 11.3384 41.4144 11.2373 41.4549C13.1169 45.6179 18.3512 54.8737 30.356 57.1169C42.6437 59.1782 51.3339 53.742 56.0833 49.013C59.0137 46.0827 62.5909 40.0806 63.7428 34.8465C65.8649 24.6207 61.9846 16.8605 60.6103 14.5365C58.3266 10.5351 55.861 8.27166 54.2846 6.89745C52.3646 4.99779 46.8473 1.70373 41.0875 0.551809Z" fill="white" stroke="white" stroke-width="0.191638"/>
<path d="M0.202872 52.974C0.283712 57.7029 5.98291 59.0974 13.3797 56.1873C13.2989 56.1468 12.7734 56.0054 12.7734 56.0054C4.91178 56.5712 4.20443 54.7726 3.84065 54.4089C2.87058 53.1761 3.1131 51.3169 4.1438 49.5587C6.08396 46.4465 7.13487 45.3754 10.4089 41.9803C11.5406 40.8082 17.9472 34.705 26.2938 28.2988C30.5581 24.9441 37.5912 20.6597 43.7552 16.6988C49.8788 12.7783 57.8415 9.54483 57.8415 9.54483C63.7024 7.0187 69.1389 6.21034 70.0685 6.06887C72.2108 5.72532 75.8082 5.56365 75.8688 8.27166C75.9294 12.1518 71.6045 17.9922 69.1591 21.165L69.1793 21.8116C70.3111 21.0235 77.5462 13.2431 78.5365 8.23124C79.1024 5.76574 78.3344 4.3511 77.6877 3.72462C76.9601 2.97689 75.5858 2.06748 71.6449 2.3302C64.7937 2.30999 51.6573 8.53438 51.6573 8.53438C46.5846 10.919 44.4423 12.1316 39.9153 14.7386C31.9122 19.3866 26.597 23.3475 23.7069 25.5099C21.3626 27.3287 15.138 31.896 7.92306 39.535C1.8803 45.7796 0.162452 50.3468 0.202872 52.974Z" fill="white" stroke="white" stroke-width="0.191638"/>
<path d="M70 45.7167V45.0796H73.7792V45.7167H72.2631V49.9791H71.538V45.7167H70Z" fill="white"/>
<path d="M75.2735 47.8042V49.9793H74.5704V45.1017H75.2735V46.9253H75.3175C75.4053 46.7276 75.5372 46.5738 75.713 46.4639C75.8887 46.3541 76.1304 46.2882 76.3941 46.2882C76.6358 46.2882 76.8555 46.3321 77.0532 46.442C77.251 46.5518 77.3828 46.7056 77.4927 46.9033C77.6025 47.1011 77.6465 47.3647 77.6465 47.6723V50.0013H76.9434V47.7602C76.9434 47.4966 76.8775 47.2769 76.7456 47.145C76.6138 46.9912 76.4161 46.9253 76.1744 46.9253C75.9986 46.9253 75.8448 46.9693 75.713 47.0352C75.5811 47.1011 75.4713 47.2109 75.4053 47.3428C75.3175 47.4307 75.2735 47.6064 75.2735 47.8042Z" fill="white"/>
<path d="M78.6128 49.9791V46.3099H79.3159V49.9791H78.6128ZM78.9644 45.7387C78.8326 45.7387 78.7227 45.6947 78.6348 45.6069C78.5469 45.519 78.503 45.4311 78.503 45.2993C78.503 45.1894 78.5469 45.0795 78.6348 44.9917C78.7227 44.9038 78.8326 44.8598 78.9644 44.8598C79.0962 44.8598 79.1841 44.9038 79.272 44.9917C79.3599 45.0795 79.4038 45.1674 79.4038 45.2993C79.4038 45.4091 79.3599 45.519 79.272 45.6069C79.2061 45.6947 79.0962 45.7387 78.9644 45.7387Z" fill="white"/>
<path d="M80.9862 47.804V49.9791H80.2831V46.3099H80.9643V46.9031H81.0082C81.0961 46.7054 81.2279 46.5516 81.4037 46.4417C81.5795 46.3319 81.8212 46.266 82.0848 46.266C82.3265 46.266 82.5463 46.3099 82.744 46.4198C82.9417 46.5296 83.0736 46.6834 83.1834 46.8812C83.2933 47.0789 83.3372 47.3426 83.3372 47.6502V49.9791H82.6341V47.738C82.6341 47.4744 82.5682 47.2547 82.4364 47.1229C82.3046 46.9691 82.1068 46.9031 81.8651 46.9031C81.6893 46.9031 81.5575 46.9471 81.4257 47.013C81.2938 47.0789 81.206 47.1888 81.1181 47.3206C81.0302 47.4305 80.9862 47.6062 80.9862 47.804Z" fill="white"/>
<path d="M84.963 48.7269V47.8481H85.0948L86.545 46.2882H87.4019L85.732 48.0458H85.6222L84.963 48.7269ZM84.3038 49.9793V45.1017H85.0069V49.9793H84.3038ZM86.6109 49.9793L85.2926 48.2436L85.776 47.7382L87.4678 49.9793H86.6109Z" fill="white"/>
<path d="M89.8629 49.9793V45.1017H91.6427C91.9942 45.1017 92.2799 45.1676 92.4996 45.2775C92.7193 45.3873 92.8951 45.5411 93.0049 45.7389C93.1148 45.9366 93.1807 46.1563 93.1807 46.398C93.1807 46.5958 93.1368 46.7715 93.0709 46.9033C93.005 47.0352 92.8949 47.145 92.763 47.2329C92.6312 47.3208 92.4996 47.3867 92.3458 47.4087V47.4526C92.4996 47.4526 92.6754 47.5185 92.8292 47.6064C92.983 47.6943 93.1148 47.8481 93.2247 48.0239C93.3345 48.1996 93.3785 48.4194 93.3785 48.661C93.3785 48.9027 93.3123 49.1444 93.2025 49.3421C93.0926 49.5399 92.9168 49.6937 92.6532 49.8035C92.4115 49.9134 92.1041 49.9793 91.7306 49.9793H89.8629ZM90.61 49.3421H91.6644C92.016 49.3421 92.2797 49.2762 92.4335 49.1444C92.5873 49.0126 92.6532 48.8368 92.6532 48.6391C92.6532 48.4853 92.6092 48.3534 92.5433 48.2216C92.4554 48.0898 92.3456 47.9799 92.2137 47.914C92.0599 47.8481 91.9063 47.8042 91.7086 47.8042H90.61V49.3421ZM90.61 47.2109H91.5987C91.7745 47.2109 91.9063 47.189 92.0382 47.1231C92.17 47.0571 92.2799 46.9693 92.3458 46.8594C92.4337 46.7495 92.4556 46.5958 92.4556 46.442C92.4556 46.2442 92.3897 46.0684 92.2359 45.9366C92.1041 45.8048 91.8844 45.7389 91.5768 45.7389H90.5658V47.2109H90.61Z" fill="white"/>
<path d="M94.9385 45.0796V49.9571H94.2354V45.0796H94.9385Z" fill="white"/>
<path d="M97.4431 50.045C97.0915 50.045 96.8059 49.9571 96.5422 49.8033C96.2786 49.6495 96.0808 49.4298 95.949 49.1442C95.8172 48.8586 95.7293 48.529 95.7293 48.1555C95.7293 47.782 95.7952 47.4524 95.949 47.1668C96.0808 46.8812 96.2786 46.6615 96.5422 46.5077C96.8059 46.3539 97.0915 46.266 97.4431 46.266C97.7946 46.266 98.0803 46.3539 98.344 46.5077C98.6076 46.6615 98.8054 46.8812 98.9372 47.1668C99.069 47.4524 99.1569 47.782 99.1569 48.1555C99.1569 48.529 99.091 48.8586 98.9372 49.1442C98.8054 49.4298 98.6076 49.6495 98.344 49.8033C98.0803 49.9791 97.7727 50.045 97.4431 50.045ZM97.4431 49.4518C97.6628 49.4518 97.8606 49.3859 97.9924 49.276C98.1462 49.1662 98.2561 49.0124 98.322 48.8146C98.3879 48.6169 98.4318 48.3972 98.4318 48.1775C98.4318 47.9358 98.3879 47.738 98.322 47.5403C98.2561 47.3426 98.1462 47.1888 97.9924 47.0569C97.8386 46.9471 97.6628 46.8812 97.4431 46.8812C97.2234 46.8812 97.0256 46.9471 96.8938 47.0569C96.74 47.1668 96.6301 47.3426 96.5642 47.5403C96.4983 47.738 96.4544 47.9578 96.4544 48.1775C96.4544 48.4192 96.4983 48.6389 96.5642 48.8146C96.6301 49.0124 96.74 49.1662 96.8938 49.276C97.0256 49.3859 97.2014 49.4518 97.4431 49.4518Z" fill="white"/>
<path d="M101.486 50.045C101.134 50.045 100.827 49.9571 100.563 49.8033C100.299 49.6495 100.102 49.4079 99.9699 49.1222C99.8381 48.8366 99.7722 48.507 99.7722 48.1335C99.7722 47.76 99.8381 47.4305 99.9919 47.1448C100.124 46.8592 100.321 46.6395 100.585 46.4637C100.849 46.3099 101.134 46.222 101.486 46.222C101.772 46.222 102.013 46.266 102.233 46.3758C102.453 46.4857 102.629 46.6175 102.76 46.8153C102.892 46.991 102.98 47.2107 103.002 47.4524H102.299C102.255 47.2767 102.167 47.1229 102.035 47.013C101.903 46.8812 101.728 46.8372 101.486 46.8372C101.288 46.8372 101.112 46.8812 100.959 46.991C100.805 47.1009 100.695 47.2327 100.607 47.4304C100.519 47.6282 100.475 47.8479 100.475 48.1116C100.475 48.3752 100.519 48.6169 100.607 48.8146C100.695 49.0124 100.805 49.1662 100.959 49.276C101.112 49.3859 101.288 49.4298 101.486 49.4298C101.618 49.4298 101.75 49.4079 101.86 49.3639C101.969 49.32 102.057 49.2321 102.145 49.1442C102.211 49.0563 102.277 48.9465 102.299 48.8146H103.002C102.98 49.0563 102.892 49.2541 102.76 49.4518C102.629 49.6276 102.453 49.7814 102.233 49.8912C102.013 50.0011 101.772 50.045 101.486 50.045Z" fill="white"/>
<path d="M104.408 48.7269V47.8481H104.54L105.99 46.2882H106.847L105.177 48.0458H105.067L104.408 48.7269ZM103.749 49.9793V45.1017H104.452V49.9793H103.749ZM106.056 49.9793L104.738 48.2436L105.221 47.7382L106.913 49.9793H106.056Z" fill="white"/>
<path d="M108.89 50.045C108.539 50.045 108.231 49.9571 107.968 49.8033C107.704 49.6495 107.528 49.4079 107.374 49.1222C107.242 48.8366 107.177 48.507 107.177 48.1335C107.177 47.76 107.242 47.4305 107.396 47.1448C107.528 46.8592 107.726 46.6395 107.989 46.4637C108.253 46.3099 108.539 46.222 108.89 46.222C109.176 46.222 109.418 46.266 109.637 46.3758C109.857 46.4857 110.033 46.6175 110.165 46.8153C110.297 46.991 110.384 47.2107 110.406 47.4524H109.703C109.659 47.2767 109.571 47.1229 109.44 47.013C109.308 46.8812 109.132 46.8372 108.89 46.8372C108.693 46.8372 108.517 46.8812 108.363 46.991C108.209 47.1009 108.099 47.2327 108.011 47.4304C107.924 47.6282 107.88 47.8479 107.88 48.1116C107.88 48.3752 107.924 48.6169 108.011 48.8146C108.099 49.0124 108.209 49.1662 108.363 49.276C108.517 49.3859 108.693 49.4298 108.89 49.4298C109.022 49.4298 109.154 49.4079 109.264 49.3639C109.374 49.32 109.462 49.2321 109.55 49.1442C109.615 49.0563 109.681 48.9465 109.703 48.8146H110.406C110.384 49.0563 110.297 49.2541 110.165 49.4518C110.033 49.6276 109.857 49.7814 109.637 49.8912C109.418 50.0011 109.176 50.045 108.89 50.045Z" fill="white"/>
<path d="M111.879 47.8042V49.9793H111.176V45.1017H111.879V46.9253H111.923C112.011 46.7276 112.142 46.5738 112.318 46.4639C112.494 46.3541 112.736 46.2882 113 46.2882C113.241 46.2882 113.461 46.3321 113.659 46.442C113.856 46.5518 113.988 46.7056 114.098 46.9033C114.208 47.1011 114.252 47.3647 114.252 47.6723V50.0013H113.549V47.7602C113.549 47.4966 113.483 47.2769 113.351 47.145C113.219 46.9912 113.021 46.9253 112.78 46.9253C112.604 46.9253 112.45 46.9693 112.318 47.0352C112.186 47.1011 112.077 47.2109 112.011 47.3428C111.901 47.4307 111.879 47.6064 111.879 47.8042Z" fill="white"/>
<path d="M116.273 50.067C116.031 50.067 115.834 50.023 115.636 49.9352C115.438 49.8473 115.306 49.7154 115.197 49.5617C115.087 49.3859 115.043 49.1881 115.043 48.9465C115.043 48.7487 115.087 48.5729 115.153 48.4411C115.24 48.3093 115.35 48.1994 115.482 48.1335C115.614 48.0456 115.768 48.0017 115.944 47.9578C116.119 47.9138 116.273 47.8918 116.449 47.8699C116.669 47.8479 116.844 47.8259 116.976 47.804C117.108 47.782 117.218 47.76 117.284 47.7161C117.35 47.6721 117.372 47.6062 117.372 47.5403V47.5183C117.372 47.3206 117.306 47.1448 117.196 47.035C117.086 46.9251 116.91 46.8592 116.669 46.8592C116.427 46.8592 116.229 46.9031 116.097 47.013C115.966 47.1229 115.856 47.2327 115.812 47.3645L115.131 47.2107C115.219 46.991 115.328 46.8153 115.482 46.6615C115.636 46.5296 115.812 46.4198 116.01 46.3539C116.207 46.288 116.427 46.266 116.647 46.266C116.8 46.266 116.954 46.288 117.108 46.3099C117.284 46.3539 117.438 46.3978 117.57 46.4857C117.723 46.5736 117.833 46.7054 117.921 46.8812C118.009 47.0569 118.053 47.2547 118.053 47.5403V49.9791H117.35V49.4738C117.306 49.5616 117.24 49.6495 117.152 49.7374C117.064 49.8253 116.932 49.8912 116.8 49.9571C116.647 50.023 116.471 50.067 116.273 50.067ZM116.427 49.4957C116.625 49.4957 116.8 49.4518 116.932 49.3859C117.064 49.298 117.174 49.2101 117.262 49.0783C117.328 48.9465 117.372 48.8146 117.372 48.6608V48.1775C117.35 48.1994 117.306 48.2214 117.218 48.2434C117.152 48.2654 117.064 48.2873 116.976 48.2873C116.888 48.3093 116.8 48.3093 116.713 48.3313C116.625 48.3532 116.559 48.3532 116.493 48.3532C116.361 48.3752 116.229 48.3972 116.119 48.4411C116.01 48.4851 115.922 48.551 115.856 48.6169C115.79 48.6828 115.746 48.7927 115.746 48.9245C115.746 49.1003 115.812 49.2321 115.944 49.32C116.053 49.4518 116.229 49.4957 116.427 49.4957Z" fill="white"/>
<path d="M119.019 49.9791V46.3099H119.723V49.9791H119.019ZM119.393 45.7387C119.261 45.7387 119.173 45.6947 119.063 45.6069C118.975 45.519 118.932 45.4311 118.932 45.2993C118.932 45.1894 118.975 45.0795 119.063 44.9917C119.151 44.9038 119.261 44.8598 119.393 44.8598C119.525 44.8598 119.613 44.9038 119.701 44.9917C119.788 45.0795 119.832 45.1674 119.832 45.2993C119.832 45.4091 119.788 45.519 119.701 45.6069C119.613 45.6947 119.503 45.7387 119.393 45.7387Z" fill="white"/>
<path d="M121.415 47.804V49.9791H120.712V46.3099H121.393V46.9031H121.437C121.525 46.7054 121.657 46.5516 121.832 46.4417C122.008 46.3319 122.25 46.266 122.513 46.266C122.755 46.266 122.975 46.3099 123.173 46.4198C123.37 46.5296 123.502 46.6834 123.612 46.8812C123.722 47.0789 123.766 47.3426 123.766 47.6502V49.9791H123.063V47.738C123.063 47.4744 122.997 47.2547 122.865 47.1229C122.733 46.9691 122.535 46.9031 122.294 46.9031C122.118 46.9031 121.986 46.9471 121.854 47.013C121.722 47.0789 121.635 47.1888 121.547 47.3206C121.459 47.4305 121.415 47.6062 121.415 47.804Z" fill="white"/>
<path d="M125.655 49.32L125.611 49.5836C125.589 49.7814 125.545 49.9791 125.479 50.1768C125.413 50.3746 125.369 50.5723 125.303 50.7481C125.238 50.9239 125.194 51.0777 125.15 51.1655H124.644C124.666 51.0777 124.688 50.9239 124.732 50.7701C124.776 50.5943 124.798 50.4185 124.842 50.1988C124.886 50.0011 124.908 49.7814 124.93 49.5617L124.952 49.298H125.655V49.32Z" fill="white"/>
<path d="M127.369 45.7167V45.0796H131.148V45.7167H129.632V49.9791H128.907V45.7167H127.369Z" fill="white"/>
<path d="M132.642 47.8042V49.9793H131.939V45.1017H132.642V46.9253H132.686C132.774 46.7276 132.906 46.5738 133.082 46.4639C133.258 46.3541 133.499 46.2882 133.763 46.2882C134.005 46.2882 134.225 46.3321 134.422 46.442C134.62 46.5518 134.752 46.7056 134.862 46.9033C134.972 47.1011 135.016 47.3647 135.016 47.6723V50.0013H134.312V47.7602C134.312 47.4966 134.246 47.2769 134.114 47.145C133.983 46.9912 133.785 46.9253 133.543 46.9253C133.368 46.9253 133.214 46.9693 133.082 47.0352C132.95 47.1011 132.84 47.2109 132.774 47.3428C132.687 47.4307 132.642 47.6064 132.642 47.8042Z" fill="white"/>
<path d="M135.982 49.9791V46.3099H136.685V49.9791H135.982ZM136.333 45.7387C136.202 45.7387 136.114 45.6947 136.004 45.6069C135.916 45.519 135.872 45.4311 135.872 45.2993C135.872 45.1894 135.916 45.0795 136.004 44.9917C136.092 44.9038 136.202 44.8598 136.333 44.8598C136.465 44.8598 136.553 44.9038 136.641 44.9917C136.729 45.0795 136.773 45.1674 136.773 45.2993C136.773 45.4091 136.729 45.519 136.641 45.6069C136.575 45.6947 136.465 45.7387 136.333 45.7387Z" fill="white"/>
<path d="M138.355 47.804V49.9791H137.652V46.3099H138.333V46.9031H138.377C138.465 46.7054 138.597 46.5516 138.773 46.4417C138.948 46.3319 139.19 46.266 139.454 46.266C139.695 46.266 139.915 46.3099 140.113 46.4198C140.311 46.5296 140.442 46.6834 140.552 46.8812C140.662 47.0789 140.706 47.3426 140.706 47.6502V49.9791H140.003V47.738C140.003 47.4744 139.937 47.2547 139.805 47.1229C139.674 46.9691 139.476 46.9031 139.234 46.9031C139.058 46.9031 138.926 46.9471 138.795 47.013C138.663 47.0789 138.575 47.1888 138.487 47.3206C138.399 47.4305 138.355 47.6062 138.355 47.804Z" fill="white"/>
<path d="M142.332 48.7269V47.8481H142.464L143.914 46.2882H144.771L143.101 48.0458H142.991L142.332 48.7269ZM141.673 49.9793V45.1017H142.376V49.9793H141.673ZM143.98 49.9793L142.661 48.2436L143.145 47.7382L144.837 49.9793H143.98Z" fill="white"/>
<path d="M147.254 49.9793V45.1017H150.308V45.7389H147.979V47.2329H150.154V47.8701H147.979V49.3641H150.33V50.0013H147.254V49.9793Z" fill="white"/>
<path d="M153.955 46.3758C153.933 46.1561 153.823 45.9804 153.647 45.8485C153.472 45.7167 153.23 45.6508 152.944 45.6508C152.747 45.6508 152.571 45.6728 152.417 45.7387C152.263 45.8046 152.153 45.8925 152.065 46.0023C151.977 46.1122 151.956 46.244 151.956 46.3758C151.956 46.4857 151.977 46.5956 152.043 46.6834C152.109 46.7713 152.175 46.8372 152.263 46.9032C152.351 46.9691 152.461 47.013 152.549 47.035C152.659 47.0789 152.747 47.1009 152.856 47.1229L153.34 47.2547C153.494 47.2986 153.647 47.3426 153.823 47.4085C153.977 47.4744 154.131 47.5623 154.285 47.6721C154.416 47.782 154.548 47.9138 154.614 48.0676C154.702 48.2214 154.746 48.4192 154.746 48.6389C154.746 48.9245 154.68 49.1662 154.526 49.3859C154.394 49.6056 154.175 49.7594 153.911 49.8912C153.647 50.0231 153.318 50.067 152.944 50.067C152.571 50.067 152.263 50.0011 151.999 49.8912C151.736 49.7814 151.516 49.6056 151.362 49.4079C151.208 49.1881 151.121 48.9465 151.121 48.6389H151.868C151.89 48.8146 151.934 48.9684 152.043 49.0783C152.153 49.1881 152.285 49.276 152.439 49.342C152.593 49.4079 152.768 49.4298 152.966 49.4298C153.164 49.4298 153.362 49.4079 153.516 49.342C153.669 49.276 153.801 49.1882 153.911 49.0563C153.999 48.9465 154.043 48.7927 154.043 48.6389C154.043 48.4851 153.999 48.3752 153.911 48.2873C153.823 48.1995 153.713 48.1116 153.581 48.0676C153.45 48.0017 153.296 47.9578 153.12 47.9138L152.549 47.76C152.153 47.6502 151.846 47.4964 151.626 47.2986C151.406 47.1009 151.274 46.8153 151.274 46.4857C151.274 46.2001 151.34 45.9584 151.494 45.7387C151.648 45.519 151.846 45.3652 152.109 45.2553C152.373 45.1455 152.659 45.0796 152.988 45.0796C153.318 45.0796 153.603 45.1455 153.867 45.2553C154.131 45.3652 154.328 45.5409 154.46 45.7387C154.614 45.9364 154.68 46.1781 154.68 46.4418H153.955V46.3758Z" fill="white"/>
<path d="M155.625 49.9793V45.1017H157.361C157.734 45.1017 158.064 45.1676 158.305 45.2995C158.547 45.4313 158.745 45.629 158.877 45.8707C159.009 46.1124 159.053 46.376 159.053 46.6836C159.053 46.9912 158.987 47.2549 158.855 47.4966C158.723 47.7383 158.547 47.914 158.284 48.0678C158.042 48.1996 157.712 48.2656 157.339 48.2656H156.13V47.6504H157.251C157.493 47.6504 157.69 47.6064 157.844 47.5185C157.998 47.4307 158.108 47.3208 158.174 47.167C158.24 47.0132 158.284 46.8594 158.284 46.6836C158.284 46.5079 158.24 46.3321 158.174 46.2003C158.108 46.0465 157.998 45.9366 157.844 45.8707C157.69 45.7828 157.493 45.7389 157.251 45.7389H156.328V50.0013H155.625V49.9793Z" fill="white"/>
</g>
<defs>
<linearGradient id="paint0_linear_245_3052" x1="8.30704" y1="28.7838" x2="26.395" y2="28.7838" gradientUnits="userSpaceOnUse">
<stop stop-color="#0191FF"/>
<stop offset="1" stop-color="#096EF2"/>
</linearGradient>
<linearGradient id="paint1_linear_245_3052" x1="29.568" y1="28.7129" x2="47.2968" y2="28.7129" gradientUnits="userSpaceOnUse">
<stop stop-color="#0191FF"/>
<stop offset="1" stop-color="#096EF2"/>
</linearGradient>
<linearGradient id="paint2_linear_245_3052" x1="50.4448" y1="28.6352" x2="68.2498" y2="28.6352" gradientUnits="userSpaceOnUse">
<stop stop-color="#0191FF"/>
<stop offset="1" stop-color="#096EF2"/>
</linearGradient>
<clipPath id="clip0_245_3052">
<rect width="159.254" height="58" fill="white"/>
</clipPath>
</defs>
</svg>
