<?xml version="1.0" encoding="UTF-8"?>
<svg id="Intel_logo" width="300" height="152.11" version="1.1" xmlns="http://www.w3.org/2000/svg">
<g fill="#287ac7" stroke-width="0">
	<g id="Registered">
		<path id="R" d="m286.45 99.14v11.033h1.6406v-4.8691h2.0528l2.8729 4.5449h1.6427l-2.8728-4.2187c1.6419-0.3245 2.8728-1.299 2.8728-3.2461 0-2.2715-1.2322-3.2441-4.1055-3.2441zm2.0507 1.6212h2.0527c1.2314 0 2.4628 0.32515 2.4628 1.6232 0 1.6225-1.231 1.6232-2.8729 1.6232h-1.6427z"/>
		<path id="Signet" d="m290.45 95.247a9.4105 9.4105 0 0 0-9.2754 9.4101 9.4105 9.4105 0 0 0 9.4102 9.4101 9.4105 9.4105 0 0 0 9.4102-9.4101 9.4105 9.4105 0 0 0-9.4102-9.4101 9.4105 9.4105 0 0 0-0.13476 0zm0 1.5781a7.772 7.8324 0 0 1 0.13476 0 7.772 7.8324 0 0 1 7.7715 7.832 7.772 7.8324 0 0 1-7.7715 7.832 7.772 7.8324 0 0 1-7.7715-7.832 7.772 7.8324 0 0 1 7.6367-7.832z"/>
	</g>
	<path id="tel" d="m127.69 0.16797v30.504h-13.545v16.225h13.955v51.271c0 3.5696 8e-5 17.199 20.523 17.199h11.904c0 2.9206 9.0292 36.67 42.688 36.67 31.196 0 38.174-26.61 38.174-28.557h-21.344s-2.8742 10.707-16.83 10.707c-17.65 0-19.701-20.119-19.701-20.119l82.914-3.2e-4 -1.7e-4 -113.9h-20.523v100.6c0 1.298-1.6426 1.298-1.6426 0 0-5.2883-8.8835-37.967-41.047-37.967-31.31 0-41.457 27.716-41.457 35.371h-1.2305c-4.5151 0-11.494-1.6223-11.494-9.0859v-42.186h15.598v-16.551h-15.598v-30.178zm75.525 79.828c18.061 0 18.883 18.172 18.883 18.172h-38.996s1.6947-18.172 20.113-18.172z"/>
	<path id="n" d="m57.912 114.07h-21.344v-83.722h21.344v12.98s6.157-15.252 23.807-15.252c18.471 0 28.733 13.629 28.733 26.609v59.385h-21.344v-52.245c0-2.596-3.2837-13.629-14.777-13.629-12.314 0.64901-16.419 10.06-16.419 15.252"/>
	<rect id="icing_on_the_cake" y=".168" width="20.523" height="19.146"/>
	<rect id="i" y="30.347" width="20.523" height="83.722"/>
</g>
</svg>
